<?xml version="1.0" encoding="UTF-8" standalone="no"?>
<!-- Created with Inkscape (http://www.inkscape.org/) -->
<svg width="512" height="512" viewBox="0 0 135.46666 135.46667" version="1.1" id="svg5" xmlns:xlink="http://www.w3.org/1999/xlink" xmlns="http://www.w3.org/2000/svg" xmlns:svg="http://www.w3.org/2000/svg">
  <defs id="defs2">
    <linearGradient id="linearGradient1">
      <stop style="stop-color:#ff0000;stop-opacity:1;" offset="0" id="stop1"/>
      <stop style="stop-color:#7b0000;stop-opacity:1;" offset="1" id="stop2"/>
    </linearGradient>
    <linearGradient xlink:href="#linearGradient1" id="linearGradient2" x1="0" y1="67.73333" x2="135.46666" y2="67.73333" gradientUnits="userSpaceOnUse" gradientTransform="translate(24.792119,-92.525449)"/>
    <linearGradient xlink:href="#linearGradient1" id="linearGradient5" gradientUnits="userSpaceOnUse" gradientTransform="translate(-160.25878,-42.941209)" x1="0" y1="67.73333" x2="135.46666" y2="67.73333"/>
  </defs>
  <g id="layer1">
    <circle style="display:inline;fill:url(#linearGradient2);stroke-width:6.35;stroke-linecap:round;stroke-linejoin:round;stroke-opacity:0.4;paint-order:stroke markers fill" id="path1" cx="92.525452" cy="-24.79212" r="67.73333" transform="rotate(60)"/>
    <path id="circle4" style="display:none;fill:url(#linearGradient5);stroke-width:6.35;stroke-linecap:round;stroke-linejoin:round;stroke-opacity:0.4;paint-order:stroke markers fill" d="m -35.54443,61.411797 a 67.73333,67.73333 0 0 0 10.752452,-36.619594 67.73333,67.73333 0 0 0 -67.733393,-67.733558 67.73333,67.73333 0 0 0 -67.733559,67.733393 67.73333,67.73333 0 0 0 67.733395,67.733557 67.73333,67.73333 0 0 0 56.981105,-31.113798 z m -1.071867,-4.34051 a 64.558334,64.558334 0 0 1 -88.188323,23.629989 64.558334,64.558334 0 0 1 -23.62999,-88.1883219 64.558334,64.558334 0 0 1 88.188323,-23.6299901 64.558334,64.558334 0 0 1 23.62999,88.188323 z" transform="rotate(-120)"/>
    <g id="g5" transform="translate(162.06323,46.57157)">
      <path id="rect3" style="fill:#ffffff;stroke-width:6.35;stroke-linecap:round;stroke-linejoin:round;stroke-opacity:0.4;paint-order:stroke markers fill" d="m -99.72156,-32.056947 c -1.96961,0 -3.55534,1.585215 -3.55534,3.554822 v 43.60715 a 12.776985,12.776985 0 0 0 -3.82974,9.076453 12.776985,12.776985 0 0 0 12.776482,12.777 12.776985,12.776985 0 0 0 12.776997,-12.777 12.776985,12.776985 0 0 0 -3.82974,-9.118311 v -43.565292 c 0,-1.969607 -1.585731,-3.554822 -3.555338,-3.554822 z m 5.391402,49.888422 a 6.3499999,6.3499999 0 0 1 6.35,6.350003 6.3499999,6.3499999 0 0 1 -6.35,6.350002 6.3499999,6.3499999 0 0 1 -6.350002,-6.350002 6.3499999,6.3499999 0 0 1 6.350002,-6.350003 z"/>
      <path id="rect1" style="fill:#ffffff;stroke-width:6.35;stroke-linecap:round;stroke-linejoin:round;stroke-opacity:0.4;paint-order:stroke markers fill" d="m -123.78521,20.508309 c -2.59514,0 -4.68447,2.089326 -4.68447,4.684468 v 4.651396 h 1.87172 c 1.96961,0 3.55534,1.585217 3.55534,3.554822 0,1.969605 -1.58573,3.555338 -3.55534,3.555338 h -1.87172 v 6.934977 h 1.87172 c 1.96961,0 3.55534,1.585217 3.55534,3.554822 0,1.969605 -1.58573,3.555338 -3.55534,3.555338 h -1.87172 v 6.934978 h 1.87172 c 1.96961,0 3.55534,1.585733 3.55534,3.555338 0,1.969605 -1.58573,3.554822 -3.55534,3.554822 h -1.87172 v 4.651395 c 0,2.595142 2.08933,4.684469 4.68447,4.684469 h 58.910618 c 2.595142,0 4.684468,-2.089327 4.684468,-4.684469 v -4.651395 h -1.871203 c -1.969605,0 -3.555339,-1.585217 -3.555339,-3.554822 0,-1.969605 1.585734,-3.555338 3.555339,-3.555338 h 1.871203 V 50.99947 h -1.871203 c -1.969605,0 -3.555339,-1.585733 -3.555339,-3.555338 0,-1.969605 1.585734,-3.554822 3.555339,-3.554822 h 1.871203 v -6.934977 h -1.871203 c -1.969605,0 -3.555339,-1.585733 -3.555339,-3.555338 0,-1.969605 1.585734,-3.554822 3.555339,-3.554822 h 1.871203 v -4.651396 c 0,-2.595142 -2.089326,-4.684468 -4.684468,-4.684468 z"/>
      <path id="rect3-5-3" style="fill:#000000;fill-opacity:0.2;stroke-width:6.35;stroke-linecap:round;stroke-linejoin:round;stroke-opacity:0.4;paint-order:stroke markers fill" d="m -126.59796,29.844173 c 1.96961,0 3.55534,1.585217 3.55534,3.554822 0,1.969605 -1.58573,3.555338 -3.55534,3.555338 h 64.536116 c -1.969605,0 -3.555339,-1.585733 -3.555339,-3.555338 0,-1.969605 1.585734,-3.554822 3.555339,-3.554822 z m 0,14.045137 c 1.96961,0 3.55534,1.585214 3.55534,3.554822 0,1.969608 -1.58573,3.555338 -3.55534,3.555338 h 64.536116 c -1.969605,0 -3.555339,-1.58573 -3.555339,-3.555338 0,-1.969608 1.585734,-3.554822 3.555339,-3.554822 z m 0,14.045138 c 1.96961,0 3.55534,1.58573 3.55534,3.555338 0,1.969598 -1.58573,3.554822 -3.55534,3.554822 h 64.536116 c -1.969605,0 -3.555339,-1.585224 -3.555339,-3.554822 0,-1.969608 1.585734,-3.555338 3.555339,-3.555338 z"/>
      <path id="rect4" style="fill:#ffffff;stroke-width:6.35;stroke-linecap:round;stroke-linejoin:round;stroke-opacity:0.4;paint-order:stroke markers fill" d="m -123.79399,9.3648029 c -2.59021,0 -4.67569,2.0854721 -4.67569,4.6756831 v 10.709941 c 0,2.590211 2.08548,4.675683 4.67569,4.675683 h 58.928183 c 2.590211,0 4.675683,-2.085472 4.675683,-4.675683 V 14.040486 c 0,-2.590211 -2.085472,-4.6756831 -4.675683,-4.6756831 h -4.341854 C -71.026806,11.257911 -73.526032,20.16466 -75.938,20.16466 h -36.78432 c -2.61023,0 -5.16008,-8.65081 -6.72982,-10.7998571 z"/>
    </g>
  </g>
</svg>